<?xml version="1.0" standalone="no"?><!DOCTYPE svg PUBLIC "-//W3C//DTD SVG 1.1//EN" "http://www.w3.org/Graphics/SVG/1.1/DTD/svg11.dtd"><svg t="1704358147102" class="icon" viewBox="0 0 1024 1024" version="1.1" xmlns="http://www.w3.org/2000/svg" p-id="4667" xmlns:xlink="http://www.w3.org/1999/xlink" width="20" height="20"><path d="M512 18.618182C139.636364 18.618182 18.618182 349.090909 18.618182 507.345455c0 162.909091 116.363636 493.381818 484.072727 493.381818 46.545455 0 111.709091-27.927273 111.709091-102.4 0-46.545455-13.963636-65.163636-27.927273-83.781818-4.654545-4.654545-9.309091-9.309091-9.309091-18.618182 0-37.236364 23.272727-51.2 27.927273-51.2h9.309091c65.163636 4.654545 144.290909 4.654545 200.145455-18.618182 74.472727-27.927273 190.836364-121.018182 190.836363-269.963636C1005.381818 307.2 856.436364 18.618182 512 18.618182z" fill="#0075C1" p-id="4668"></path><path d="M228.072727 512c-46.545455 0-79.127273-37.236364-79.127272-79.127273S186.181818 353.745455 228.072727 353.745455s79.127273 37.236364 79.127273 79.127272c0 41.890909-32.581818 79.127273-79.127273 79.127273zM381.672727 311.854545c-46.545455 0-79.127273-37.236364-79.127272-79.127272s37.236364-79.127273 79.127272-79.127273c46.545455 0 79.127273 37.236364 79.127273 79.127273 0 41.890909-37.236364 79.127273-79.127273 79.127272zM637.672727 311.854545c-46.545455 0-79.127273-37.236364-79.127272-79.127272s37.236364-79.127273 79.127272-79.127273c46.545455 0 79.127273 37.236364 79.127273 79.127273 0 41.890909-32.581818 79.127273-79.127273 79.127272zM795.927273 512c-46.545455 0-79.127273-37.236364-79.127273-79.127273s37.236364-79.127273 79.127273-79.127272 79.127273 37.236364 79.127272 79.127272c0 41.890909-37.236364 79.127273-79.127272 79.127273z" fill="#FFFFFF" p-id="4669"></path></svg>